<svg id="Ebene_1" data-name="Ebene 1" xmlns="http://www.w3.org/2000/svg" viewBox="0 0 687.2199 720.721"><title>hörnchenLogo_final</title><path d="M61.4528,720.4961c-1.0981-.191-4.16-.89-6.7971-1.5541-2.64-.664-13.0819-1.9339-23.2029-2.8209-24.8161-2.1711-26.8981-2.484-29.57-4.445-2.2269-1.633-2.27-1.793-1.207-4.3591,2.273-5.4919,18.691-20.68,30.379-28.1059,16.437-10.441,27.59-16.328,38.5271-20.32,5.27-1.926,33.731-9.4881,40.6719-10.809,7.734-1.472,37.937-4.261,39.086-3.613.2811.164,7.265.547,15.515.8559,10.1841.3821,15,.2961,15-.2659a61.656,61.656,0,0,0-3.4019-7.961l-3.3981-7.133-3.5119-.496c-1.93-.2771-8.41-.523-14.398-.547-13.028-.0581-18.3721-.8121-19.8251-2.801-1.851-2.531-1.2379-7.9531,1.735-15.32a59.025,59.025,0,0,0,2.8-7.9261c0-.6289-1.9369-1.1559-5.4019-1.4679a77.1387,77.1387,0,0,1-20.48-5.371c-3.532-1.411-6.3949-3.536-11.6839-8.668-7.973-7.743-10.0161-11.3361-13.4061-23.598-1.9179-6.9421-2.207-9.43-2.1919-18.801.016-9.203.348-12.043,2.235-19.199,4.789-18.18,9.7109-28.359,21.1759-43.809,4.7961-6.468,16.722-16.445,24.089-20.156,7.918-3.988,21.918-5.773,28.9341-3.691,3.1089.925,4.406,1.027,4.625.3709,1.488-4.461,12.539-5.797,29.3049-3.543,15.2261,2.0471,29.425,3.4411,44.8,4.4021,7.481.4689,17.9181,1.199,23.2,1.625,22.789,1.828,25.957,1.8589,26.5.262.2771-.8051,2.4761-5.6021,4.894-10.664,2.4141-5.059,5.27-11.508,6.34-14.3321,1.5549-4.0819,7.9019-27.3789,10.27-37.6679.25-1.098-1.34,1.5149-3.5359,5.8119-10.273,20.09-26.234,34.5591-46.402,42.0671-12.2771,4.57-18.3081,5.7219-29.976,5.7219-15.149,0-30.9421-3.4719-38.766-8.5269-1.723-1.109-2.4381-1.0311-8.547.957-8.082,2.629-9.57,2.363-14.9341-2.656-4.757-4.446-9.0579-12.571-14.582-27.535-6.3979-17.332-8.234-25.582-11.3429-51.039-1.7891-14.665-1.192-41.6921,1.172-52.801,4.0739-19.133,10.23-35.4381,17.277-45.758,8.8939-13.02,15.7109-22.129,20.8789-27.8911,5.793-6.4609,5.7971-5.3159-.0549-14.351-1.8511-2.86-5.453-9.16-8-14-2.551-4.84-5.8281-10.805-7.285-13.258a102.2459,102.2459,0,0,1-9.2271-23.898c-1.1519-5.59-.582-10.047,3.715-28.8641,3.887-17.0269,8.707-28.8549,19.281-47.312,3.7-6.453,6.7231-12.664,6.7231-13.8089,0-1.14.5549-5.512,1.231-9.715l1.23-7.64-2.0191-2.3989c-1.9419-2.3081-5.3359-12.0431-6.52-18.703-.5271-2.9451-.465-3.1091.785-2.0781a32.9794,32.9794,0,0,1,4.192,6.1991c3.097,5.5389,3.914,6.2579,3.269,2.887-.5941-3.121.813-21.637,2.328-30.6091,1.555-9.196,3.664-15.1179,6.254-17.5509L202.1367,0l-.3949,3.485c-.2191,1.914-.933,6.9021-1.5941,11.0821-.6559,4.179-1.3669,13.363-1.5779,20.4019l-.382,12.801,2.0459-5.6019c6.09-16.6521,14.899-30.257,22.4931-34.738l2.7459-1.6171L224.18,8.317c-.7149,1.3751-2.696,4.793-4.41,7.59-5.8359,9.5351-15.086,29.3591-14.137,30.3041.211.211,1.3871-1.058,2.6091-2.824,4.496-6.484,12.821-12.9341,19.164-14.844l3.711-1.1171-9.6331,10.18c-5.293,5.5969-10.586,11.527-11.7569,13.172l-2.1251,2.9879,1.4681,5c1.801,6.117,9.215,21.289,12.821,26.2269,1.4529,1.9961,6.7029,7.2141,11.6679,11.6011,14.89,13.16,18.402,16.6019,20.789,20.375,2.5971,4.109,2.7611,3.7579,1.1051-2.4021-1.383-5.153-1.5351-9.293-.375-10.012,1.203-.7459,5.8519,9.9221,8.3709,19.2151,1.192,4.398,2.403,8.539,2.688,9.199.9681,2.242,1.0111-15.539.047-19.0231-.5239-1.883-.7309-3.6449-.457-3.914.582-.586,2.9291,1.2221,2.9291,2.2571,0,.3989,1.9769,3.6179,4.3989,7.1489,2.422,3.5351,4.433,7.0351,4.4761,7.7771a36.4961,36.4961,0,0,1-1.367,11.754c-.6521,2.199-1.371,8.5-1.598,14-.4531,11,.0319,11.309,3.2429,2.059q2.8471-8.1977,3.9411-2.789c1.1879,5.933.5159,9.867-3.1911,18.73-5.625,13.449-7.602,18.949-7.34,20.43.219,1.262.7461,1.2541,7.836-.156,4.179-.829,10.66-2.1919,14.3981-3.0279a118.0689,118.0689,0,0,1,14.0739-2.0581c4.0041-.297,7.696-.797,8.2031-1.1139.512-.312,2.012-5.7691,3.3329-12.125,1.324-6.351,3.699-16.23,5.285-21.949,1.586-5.723,3.1521-11.48,3.48-12.801,2.25-8.996,10.008-19.91,23.547-33.1211,9.3949-9.1639,11.6879-9.187,4.047-.0389-2.942,3.5239-7.965,12.629-7.32,13.2739.1951.195,1.4681-.586,2.832-1.7349,3.535-2.9761,12.66-7.261,23.2221-10.91,13.6449-4.7151,22.4769-9.621,38.41-21.3511,12.356-9.09,13.895-10.7469,20.801-22.411,6.039-10.1949,9.5669-18.589,13.4029-31.906.793-2.75,1.7181-5,2.0621-5,1.297,0,.039,12.199-2.3121,22.3989-.379,1.656.418,1.156,4.6361-2.8909,2.805-2.6911,7.0629-6.4141,9.461-8.274,4.637-3.589,14.383-8.8351,16.4179-8.8351,2.2071,0,1.2191,1.953-2.43,4.8a85.7393,85.7393,0,0,0-6.968,6.2429l-3.3829,3.437,4.8009-2.129a81.3339,81.3339,0,0,1,28.89-6.3079c4.891-.149,9.3519.0149,9.9179.3629,1.563.965.285,3.1951-1.8359,3.1951-2.5191,0-28.355,8.0939-35.379,11.0819a96.4559,96.4559,0,0,0-9.199,4.5241l-3.594,2.1279,2.801-.4879c5.891-1.031,16.465-1.375,18.3989-.601l2,.8-2.93,1.258c-1.6131.6919-7.91,2.492-14,3.996-15.391,3.809-15.0231,3.6179-17.012,8.922-1.57,4.2069-1.668,5.703-1.3511,21.449.336,16.668,1.0781,22.395,4.0621,31.3289,1.141,3.406,4.801,20.789,5.6449,26.8a90.8336,90.8336,0,0,0,2.2261,9.6019c1.461,5.0941,1.723,8.109,1.7389,20l.0191,14-2.594,4.965c-3.5581,6.8121-6.484,9.937-15.89,16.98-4.4459,3.328-10.0239,7.7309-12.3989,9.778a177.7967,177.7967,0,0,1-15.5151,10.8c-12.8049,8.09-21.2,13.9341-21.2,14.7581a19.641,19.641,0,0,0,2.856,3.985c3.367,4.0309,5.34,7.6319,8.957,16.3319,7.781,18.722,10.609,30.3081,11.1369,45.6011.496,14.524-.629,19.899-7.2779,34.715-5.48,12.207-10.5391,19.4529-17.8391,25.5549-11.465,9.5781-21.8329,14.332-35.1019,16.0861-3.922.519-7.375,1.191-7.668,1.496-.7851.797-2.793,9.1909-3.914,16.359-.981,6.254-.856,10.359.8829,29.3709a180.6935,180.6935,0,0,0,3.922,25.617c.492,1.981,1.4721,6.121,2.1831,9.2a55.03,55.03,0,0,0,1.824,6.6279c.293.567,1.188-1.7729,1.9889-5.1989,4.8041-20.5541,27.4451-72.82,41.8551-96.6291,9.086-15.0069,19.7349-30.9019,23.77-35.472,3.008-3.4069,8.086-9.7349,18.211-22.68,8-10.23,11.664-13.9061,27.5621-27.6561,26.4449-22.8709,32.11-27.0039,49.8869-36.422,19.0941-10.113,30.926-14.832,43.3161-17.2769,24.598-4.852,52.27-4.0431,70.25,2.058a93.0061,93.0061,0,0,1,27.414,14.004c9.828,6.965,13.883,11.039,19.5239,19.6129,6.0151,9.1491,7.9451,13.746,9.8241,23.4341,2.0309,10.457,2.0589,16.988.102,25.1989-.84,3.52-2.305,11.0431-3.258,16.7151-3.5,20.8279-11.6881,37.73-30.5821,63.121-2.6879,3.6129-17.039,18.785-31.942,33.7619-14.883,14.961-28.66,29.2851-30.617,31.8281-3.7929,4.93-9.266,14.23-9.266,15.746,0,1.574,4.8951,3.016,13.778,4.0509,7.578.886,9.39.8441,15.566-.3829,8.586-1.707,15.656-5.195,23.0551-11.379,3.0819-2.5741,7.016-5.734,8.746-7.023,14.66-10.918,25.2849-26.516,31.184-45.789a29.1823,29.1823,0,0,0,1.269-5.8011c0-2.0079,1.481-2.1839,2.098-.25.246.7731.7539,2.121,1.125,3a21.6347,21.6347,0,0,1,1.0659,4.402,57.9269,57.9269,0,0,0,1.582,6.8011c2.871,9.6329,3.731,13.832,3.731,18.2579,0,4.59,1.7151,18.054,3.23,25.34,1.1991,5.7809,1.258,20.691.1021,27.1989-4.098,23.1131-6.2741,30.097-14.133,45.386-8.93,17.379-11.473,21.8481-15.668,27.5751-7.5041,10.23-9.7731,12.636-17.047,18.097-6.82,5.1249-8.836,6.5279-20.4841,14.246-7.2,4.774-23.336,12.2539-34.8009,16.1329-14.117,4.7781-20.715,5.4611-41.348,4.2821-40.7221-2.321-50.168-5.008-62.7771-17.864-12.805-13.0581-25.59-33.082-29.027-45.4691-4.762-17.1519-7.6179-41.265-6.8249-57.5849.9459-19.379,4.793-32.325,17.9529-60.399,5.1291-10.9371,8.415-17.2811,13.4651-26,2.168-3.742,3.828-6.9331,3.6879-7.0941-.5119-.6009-13.82,7.524-21.93,13.387-4.617,3.34-12.18,9.3281-16.797,13.301-4.621,3.9731-12.465,10.4061-17.4331,14.2931-10.9769,8.586-25.5979,22.57-30.793,29.449-9.457,12.5119-18.9769,26.164-18.9769,27.211a5.7822,5.7822,0,0,0,1.176,2.699,6.3283,6.3283,0,0,1,1.199,3.078c.031,1.903,2.7739,5.559,9.996,13.336,3.098,3.336,7.086,7.657,8.86,9.6019,3.5971,3.9371,18.5891,17.8981,21.14,19.6871,2.367,1.657,4.0309,5.305,4.0309,8.844,0,5.5159-2.4409,13.1519-10.5229,32.9259-3.219,7.875-17.848,33.2971-21.3361,37.07-1.113,1.207-1.8709,2.336-1.683,2.508.1871.176,5.742-.0861,12.3431-.574,6.598-.4921,19.9179-.844,29.598-.7851,20.019.129,26.996,1.199,40.8009,6.2731,4.3981,1.617,13.2181,4.5509,19.6011,6.52,12.9649,4,25.133,10.003,39.8319,19.6521,4.8711,3.199,10.77,6.894,13.106,8.2149,5.7421,3.246,11.8591,11.2381,11.8591,15.496,0,3.7231-2.3631,6.5041-5.527,6.5041a18.9514,18.9514,0,0,0-5.903,1.609c-9.964,4.406-46.367,8.1409-78.9681,8.0979-35.5159-.0469-42.492-1.4809-88.7579-18.2269-11.395-4.125-21.3671-9.636-26.641-14.719-3.918-3.781-4.6011-4.863-4.6011-7.3,0-1.575.539-3.313,1.1991-3.86a3.1963,3.1963,0,0,0,1.199-1.7261c0-.6759-9.2071,6.851-14.797,12.1011-10.988,10.309-23.547,15.3949-46.402,18.785-20.27,3.012-22.254,3.1529-29.008,2.083-9.3941-1.489-17.8751-3.364-20.992-4.6371-4.016-1.6449-10.973-6.5389-12.41-8.7309-1.567-2.398-2.1879-2.359-6.2459.391-2.692,1.82-13.1681,6.9259-24.942,12.152-4.183,1.8559-11.6291,4.711-15.6011,5.985a32.9178,32.9178,0,0,0-5.2,1.9959c-1.343.9841-13.2769,4.73-19.207,6.0271a263.3919,263.3919,0,0,1-26.793,4.7229c-5.5.7031-11.98,1.6481-14.4019,2.1051-4.4411.832-44.293,1.7269-48,1.074ZM90.6557,710.243a180.0032,180.0032,0,0,0,19.199-1.5629c3.961-.668,11.469-1.8011,16.688-2.5231a236.0046,236.0046,0,0,0,60.91-17.551c1.32-.5859,6.785-2.9339,12.1369-5.2189,13.047-5.559,12.957-5.4881,10.91-8.9061-1.898-3.1719-3.7931-8.8909-5.027-15.1879l-.8751-4.4721-12.172-1.02c-6.696-.5581-15.422-1.1951-19.399-1.414-7.7419-.422-30.953.984-35.5739,2.16-1.5391.3909-5.8591,1.1209-9.598,1.621a134.1075,134.1075,0,0,0-24.402,5.6919c-7.863,2.4721-14.39,4.289-21.199,5.8981-5.2541,1.242-13.473,4.11-14.711,5.133a25.7376,25.7376,0,0,1-4.4881,2.16,65.1586,65.1586,0,0,0-7.6019,3.801c-2.1991,1.305-6.6991,3.805-10,5.5549a254.75,254.75,0,0,0-25.398,16.242c-6.7229,4.8081-6.5709,4.9761,4.601,5.0781,3.739.035,10.5781.3869,15.1991.785,7.4029.633,8.5429.563,9.6139-.6131,2.855-3.1289,11.297-7.875,31.586-17.75,33.129-16.125,39.511-18.586,60.2971-23.2349,9.3319-2.086,11.9919-2.363,20.8-2.168,5.555.1219,10.1021.547,10.1021.9459,0,.6561-4.711,2.6011-12.3991,5.1251-12.1009,3.969-23.175,7.566-29.6009,9.609-10.0551,3.199-19.5431,7.2349-38.3991,16.332-8.5819,4.1409-18.66,8.922-22.402,10.625-9.4139,4.289-9.8359,4.6879-5.5309,5.2269a70.1341,70.1341,0,0,0,9.1329.2151c3.078-.125,11-.3871,17.601-.5821Zm374-13.2309c0-1.555-17.875-15.023-25.6011-19.289-12.5629-6.9341-27.86-10.8671-38.6019-9.93-5.289.4609-6.199.36-6.199-.695,0-1.738.957-2.16,6.7969-2.9841,4.3671-.6209,7.0581-.371,17.918,1.664,17.1871,3.215,29.836,7.9841,38.551,14.535,1.945,1.461,5.074,3.6561,6.953,4.879a37.7285,37.7285,0,0,1,7.203,7.1091l3.7771,4.8869,12.801-.5549c7.0389-.305,21.0819-1.547,31.199-2.765l18.4019-2.2151-4.8629-2.4849c-2.6721-1.367-8.2541-4.785-12.3981-7.5971-12.176-8.2659-23.25-13.754-34.7579-17.2349-5.711-1.7221-14.34-4.59-19.18-6.367-17.449-6.402-33.582-8.461-62-7.914-11.2221.215-22.5931.6449-25.277.953-4.2381.488-4.9451.379-5.418-.8551a2.8544,2.8544,0,0,1,.582-2.7c1.48-1.683,5.312-9.351,5.312-10.6251,0-1.765,5.641-14.1869,10.965-24.1519,2.8559-5.34,6.555-13.129,8.223-17.3081,3.859-9.676,8.812-24.165,8.812-25.786,0-.683-4.988-5.8119-11.0851-11.394-6.094-5.5779-12.3719-11.8279-13.9459-13.8829a76.24,76.24,0,0,0-6.164-6.937l-3.305-3.2,2.426,5.422a129.2539,129.2539,0,0,1,4.8709,14c1.344,4.719,2.778,9.6559,3.1841,10.9769a87.3538,87.3538,0,0,1,1.68,9.25c.816,5.957.7731,7.1681-.3479,9.336-1.2851,2.4761-5.1911,5.8161-6.813,5.8161-3.32,0-12.707-3.9371-15.523-6.5161a15.41,15.41,0,0,0-5.2931-3.3509c-1.144-.2341-4.66-2.699-7.8089-5.477-9.4961-8.386-11.617-10.027-10.3821-8.027.215.3439.59,10.2379.832,21.988.246,11.746.785,22.895,1.1991,24.77.414,1.8789,1.3439,7.0119,2.062,11.414a59.7515,59.7515,0,0,0,3.262,12.2149c2.113,4.57,2.492,7.754,1.0239,8.664-2.8169,1.7381-10.575-15.0279-13.465-29.0819-.567-2.77-1.453-5-1.9809-5s-4.8861,1.996-9.6911,4.437c-4.8049,2.4381-11.613,5.6491-15.137,7.1371-3.519,1.4879-7.476,3.2729-8.7969,3.961a11.06,11.06,0,0,1-3.64,1.2619,3.7367,3.7367,0,0,0-2.2429,1.004c-.7611.7611-10.457,1.0971-40.7571,1.4021l-39.762.3979L212,636.4851c-.285,6.9529,1.3589,14.437,5.586,25.4679,2.246,5.8481,2.7619,6.5161,9.5039,12.2041,9.2891,7.8359,11.2461,8.964,17.9571,10.336,15.242,3.1129,16.031,3.148,28.808,1.328,16.758-2.395,23.3679-3.789,30.801-6.5,15.641-5.707,28.1139-13.8559,40.559-26.4929,6.43-6.527,6.6249-6.8431,9.8049-15.859,2.8431-8.066,3.4761-11.23,5.1361-25.6521,1.047-9.11,2.4069-17.4339,3.047-18.6559l1.156-2.208.887,3.059c2.66,9.152,2.8129,11.6059,1.496,23.6879-.707,6.4761-1.289,13.164-1.289,14.8591,0,3.637-4.055,18.23-6.7771,24.3869a86.2832,86.2832,0,0,1-4.4609,8.4651c-2.4491,3.98-2.4921,4.187-1.055,5.257,2.207,1.6449,19.164,8.77,24.625,10.352,2.6059.7539,7.457,2.453,10.785,3.773s9.1179,3.25,12.8679,4.2849c3.75,1.032,10.503,2.9581,15.0111,4.2741a123.3532,123.3532,0,0,0,28.207,4.3789c12.754.5661,20,.4881,20-.2189Zm-262.4411-49.601c.797-.5041,1.3161-2.934,1.66-7.79a47.2547,47.2547,0,0,1,1.125-8.453c.5779-1.2931-.148-1.398-9.4611-1.398-5.547,0-10.0859.187-10.0859.422,0,1.344,5.442,10.867,7.7579,13.578,3.57,4.176,6.367,5.308,9.004,3.641ZM310.6558,610.18c6.598-3.4261,12.4029-6.543,12.8949-6.934.4961-.3861,1.1481-4.3861,1.457-8.89.305-4.504,1.07-11.6951,1.6991-15.981.633-4.289,1.148-8.07,1.148-8.402s-1.8471-.6841-4.105-.777a63.3024,63.3024,0,0,1-10.375-1.801c-3.4531-.895-6.418-1.625-6.59-1.625a22.51,22.51,0,0,0-1.2929,5c-2.4651,12.5741-3.48,17.2851-4.5431,21.0821-.6249,2.246-1.4879,6.027-1.91,8.402-.426,2.371-1.449,7.4769-2.2771,11.34l-1.5079,7.027,1.6989-1.109c.938-.609,7.102-3.91,13.7031-7.332ZM222.98,616.653l66.239-.086,1.422-7.199c.7811-3.961,1.89-9.8989,2.4681-13.2s1.606-8.5191,2.289-11.6011c.684-3.078,1.809-9.3279,2.4969-13.8909l1.2531-8.293-1.832-1.281c-4.199-2.941-10.586-10.465-12.781-15.051-1.8051-3.765-2.953-5.16-4.918-5.941-6.5741-2.617-8.465-5.5321-5.3981-8.309a3.4138,3.4138,0,0,0,1.1211-3.605c-.336-1.684.125-2.84,1.98-4.953,2.801-3.188,16.5509-11.559,24.1329-14.692a45.6972,45.6972,0,0,0,6.1331-2.906c.5119-.418,1.1759-2.629,1.48-4.918a94.0367,94.0367,0,0,1,2.09-9.8561c.848-3.1359,2.0319-8.289,2.637-11.4489l1.0939-5.75-12.117.4919c-6.6649.27-17.516.1181-24.1139-.3429-6.6011-.457-22.98-1.368-36.402-2.024-23.422-1.144-31.883-1.8471-43.1991-3.5941-8.231-1.2689-8.157-.914.3981,1.8951,18.262,5.988,37.707,14.707,40.145,17.996.8039,1.09.515,1.352-2,1.797a19.3555,19.3555,0,0,1-4.9419.238c-6.1441-.871-9.6011-1.0621-9.6011-.5231,0,.332,2.0231,3.1171,4.496,6.183,7.789,9.668,9.832,16.235,9.875,31.7861.0391,13.535-1.735,25.195-4.778,31.394-2.789,5.684-10.1519,16.352-14.2689,20.668-3.973,4.164-15.2581,12.9449-18.8281,14.6489l-2.906,1.382,4.3711,1.3521a63.8547,63.8547,0,0,0,10.5469,1.9329,38.1463,38.1463,0,0,1,7.9841,1.4031c2.4729,1.1289,6.8049-1.4961,16.398-9.93,13.852-12.1721,16.0159-15.1521,18.7069-25.765a75.7358,75.7358,0,0,0,1.661-31.293c-.7229-4.84-1.5159-9.52-1.762-10.399-1.5589-5.582-7.25-20.5551-8.8949-23.41-3.531-6.129-.16-7.9531,5.157-2.789,7.062,6.863,12.941,14.742,13.792,18.492.465,2.039,1.555,6.227,2.426,9.3049,2.465,8.7541,2.1989,19.3791-.777,30.6911a93.4587,93.4587,0,0,1-8.3631,21.883c-2.7859,5.0549-14.7069,18.8479-20.45,23.652-9.472,7.934-8.992,7.7739-23.586,7.7739-7.039,0-16.582-.442-21.1989-.9849-20.9021-2.449-44.8121-3.671-45.164-2.304-.125.488-.6051,2.8709-1.0661,5.2889a47.4106,47.4106,0,0,1-1.4059,5.844c-.528,1.3431-.141,1.402,5.578.8861,3.3789-.3081,35.9529-.5971,72.3819-.6441Zm64.075-109.325a90.8873,90.8873,0,0,0-11.246-.6989c-11.1959-.09-10.7659.5739-9.801-15.1721.433-7.125,1.183-13.3429,1.6561-13.82,1.1059-1.101,4.8129-1.094,20.4689.047,9.597.699,12.9841,1.23,13.9451,2.195,1.164,1.16,1.11,2.211-.6051,12.18-1.035,6-1.9379,11.6479-2.004,12.551a6.9781,6.9781,0,0,1-.715,2.5969c-.66,1.067-6.07,1.121-11.699.121Zm6.84-8.761c.25-1.5389.964-5.4769,1.585-8.754.6251-3.274.9731-6.1129.7741-6.3129a77.7082,77.7082,0,0,0-9.887-.75l-9.531-.3941-.4731,4.707c-.261,2.586-.5739,6.683-.6909,9.1051l-.219,4.3989,3.203.4181a88.3567,88.3567,0,0,0,8.992.402l5.797-.019Zm-21.6919-5.3829c.3089-3.84.7659-7.9811,1.008-9.199.34-1.6961.1369-2.215-.856-2.215-1.105,0-1.3,1.105-1.312,7.398a62.473,62.473,0,0,1-.4921,9.2c-.2659.992-.1289,1.8.301,1.8s1.039-3.14,1.3511-6.984Zm297.1489,120.5c10.461-1.633,31.472-10.91,46.2181-20.4021,9.5509-6.1489,19.305-13.4609,22.157-16.6059,4.1639-4.594,10.7889-13.89,12.98-18.215,1.191-2.347,3.043-5.66,4.1169-7.359,8.606-13.633,15.0711-29.422,17.906-43.734.481-2.418,1.364-6.739,1.965-9.598,2.504-11.934.8641-44.949-2.476-49.856-.8869-1.3-1.356-.773-4.3829,4.907-3.852,7.2259-10.0231,13.953-25.777,28.0779-12.844,11.5231-17.7041,14.7621-26.2041,17.4761-11.2259,3.5819-26.75,2.758-36.16-1.9221-4.3821-2.179-4.644-1.96-5.1991,4.3721-.4839,5.4879,1.856,12.519,5.3131,15.972a29.5489,29.5489,0,0,0,7.7459,4.5c9.25,3.789,13.8981,6.149,13.8981,7.043,0,1.3909-11.7651.1559-17.5431-1.84a21.1584,21.1584,0,0,1-8.492-5.1291c-6.0389-6.039-8.824-17.4059-6.8009-27.7849,1.137-5.843,8.6879-22.125,13.6449-29.4251,1.898-2.7969,14.1911-15.8559,27.511-29.223,28.801-28.906,29.993-30.25,40.2311-45.57,15.1329-22.6409,20.105-34.4459,22.7419-54,2.4261-17.954,2.7111-24.5819,1.2851-29.6449-.6761-2.395-1.6011-6.156-2.058-8.355-1.0431-5.036-6.3251-14.7931-11.3991-21.0671-3.8829-4.7969-17.1759-15.16-23.519-18.336-5.9569-2.98-19.965-7.34-26.2579-8.172-7.9651-1.05-30.8171-1.0539-39.9531-.007-15.66,1.7921-30.27,7.1011-52.348,19.0231-12.5159,6.758-20.4179,12.437-36.4649,26.211-7.1361,6.125-15.5621,13.2189-18.7221,15.766-5.0789,4.0889-15.8049,16.4639-27.8049,32.0819-1.731,2.2571-4.6211,5.757-6.418,7.785-3.59,4.0471-13.883,19.191-22.7811,33.515-11.535,18.5671-33.7619,66.653-44.125,95.453l-3.1139,8.653,5.176,2.347a43.0333,43.0333,0,0,0,5.797,2.332c.336-.0069,3.008-3.6989,5.93-8.1989,9.625-14.824,23.2851-28.515,43.886-43.9921,5.0591-3.801,11.8991-9.1369,15.2-11.855a235.0869,235.0869,0,0,1,33.1991-21.954c4.84-2.5779,11.101-6.085,13.91-7.7919,12.8709-7.829,29.1909-13.196,59.289-19.497,7.262-1.519,16.6209-3.3,20.801-3.9571,12.894-2.031,34.5779-1.7649,33.2339.4071-.41.664-8.168,1.906-18.0349,2.882-8.5511.848-22.8011,4.1529-36.3981,8.438-23.8129,7.5119-32.7819,10.555-38.2539,12.98-4.844,2.145-5.672,2.852-7.426,6.313-1.086,2.1409-3.176,5.773-4.641,8.066-3.5351,5.532-11.871,22.2-16.0891,32.176-1.86,4.399-5.086,11.961-7.172,16.801a159.3561,159.3561,0,0,0-6.543,19.598c-4.8049,18.902-4.504,39.582.9761,67.007a120.7583,120.7583,0,0,0,3.504,13.8709c4.2229,11.11,17.8479,30.8871,26.32,38.2,5.098,4.4021,9.254,6.6791,14.524,7.965,6.7259,1.6361,25.156,3.5741,38.801,4.082,14.2889.531,16.0779.4721,24.2969-.8089ZM192.07,592.293c6.403-4.2539,17.66-14.043,21.723-18.8819,4.824-5.7471,11.3049-15.422,13.164-19.641,1.0939-2.492,1.9729-7.668,2.8479-16.801,1.1171-11.648,1.133-14,.1171-20-1.7891-10.57-2.055-11.293-6.0781-16.4021-2.078-2.6369-4.918-6.653-6.3049-8.9219-2.2771-3.711-4.5351-5.6921-5.453-4.7741-.1881.1841.5389,2.082,1.613,4.2191,4.055,8.063,6.336,19.551,6.4459,32.453.0931,11.368-.7269,16.3279-4.551,27.5239-4.7459,13.8941-10.289,23.73-17.68,31.3551-7.1561,7.3829-12.476,11.293-15.5981,11.453-1.707.086-1.5779.207.739.692,1.539.324,3.16.6359,3.6011.695.4379.055,2.875-1.281,5.414-2.9691Zm-18.617-.2729c2.422-.8321,6.2029-2.074,8.4019-2.762,3.258-1.0151,5.321-2.594,11.114-8.504,6.183-6.304,7.6131-8.3161,10.879-15.32,4.136-8.859,8.8941-22.9531,10.304-30.516,1.0941-5.8791,1.18-19.191.153-23.7971-.41-1.8429-1.1879-5.515-1.7229-8.1559a67.3491,67.3491,0,0,0-4.648-12.3981l-3.68-7.5939-6-2.297c-6.8521-2.621-15.1991-5.297-15.1991-4.875a12.5184,12.5184,0,0,0,1.8121,2.242c2.7189,2.934,9.149,15.5629,10.8949,21.3949,3.222,10.7731,3.543,13.4491,2.996,24.9491-.887,18.5549-4.703,31.496-13.028,44.18-8.6089,13.121-15.988,19.4021-26.761,22.7851a41.8454,41.8454,0,0,0-6.5939,2.453c-1.414,1.25,16.727-.285,21.078-1.785Zm-19.074-6.9451c9.48-2.0749,16.07-5.9029,21.1479-12.2859,11.414-14.3511,15.817-26.5971,17.192-47.82.7771-12.058.7421-12.621-1.2579-20.316-3.2071-12.313-10.8951-24.938-17.6061-28.9071a62.4508,62.4508,0,0,1-5.769-4.125c-4.66-3.7459-8.547-5.1989-14.199-5.308-18.7269-.3629-39.0159,19.9261-50.5739,50.5621-4.7541,12.61-5.75,29.02-2.3681,38.969,3.871,11.383,6.7541,15.457,15.961,22.5739,9.703,7.4961,22.895,9.84,37.4731,6.657Zm-24.926-2.4219c-5.281-1.4461-6.949-2.321-13.894-7.293-3.9931-2.86-7.059-8.035-10.657-17.992-2.273-6.29-1.9841-27.102.5119-36.8011,2.199-8.5389,7.6641-19.6369,12.219-24.8129,3.816-4.332,17.0391-15.039,22.0121-17.8161,7.558-4.2269,16.5819-4.746,23.7069-1.3629,7.4961,3.554,14.863,16.679,17.4611,31.1129,1.5459,8.6091,1.554,9.2191.2529,20.0121-1.503,12.4879-2.1989,14.5889-9.7959,29.5069-3.9891,7.8361-6.43,11.5941-9.4651,14.5631-5.9139,5.785-19.9849,12.4729-25.95,12.332a51.4575,51.4575,0,0,1-6.4019-1.449Zm20.211-8.192c7.9339-3.988,13.879-9.722,20.051-19.343,2.66-4.145,4.574-13.2861,5.0659-24.207.41-9.004.227-11.614-1.32-18.801-2.414-11.231-5.039-17.3211-10.191-23.68a15.17,15.17,0,0,0-5.18-4.1991,18.0942,18.0942,0,0,0-11.4341.2771l-2.402,1.063,2.254.898a14.0028,14.0028,0,0,0,2.847.899c.743,0,3.907,3.5029,6.403,7.0849,2.5551,3.6651,2.922,7.6181,1.347,14.5241-1.546,6.809-2.1009,8.0039-5.89,12.6869-2.82,3.4891-2.82,3.5-1.1679,4.8011,2.3709,1.8629,5.0039,6.563,4.9919,8.903-.016,2.593-3.027,7.8389-5.6009,9.746-3.09,2.289-7.422,2.687-11.657,1.07-4.593-1.754-6.718-4.984-6.722-10.215-.0041-3.4061-.192-3.801-1.8051-3.808-2.6759-.0121-9.6909-4.321-12.4179-7.625l-2.387-2.895-1.328,3.863a72.96,72.96,0,0,0-2.183,12.266c-1.1061,10.859.1319,17.406,4.8039,25.406,5.6291,9.641,13.215,14.4059,23.1291,14.5349,3.4179.047,5.469-.57,10.793-3.25Zm-4.644-33.988a6.3414,6.3414,0,0,0,2.418-2.668c.9959-1.93.957-2.445-.375-4.633-1.946-3.195-4.0831-3.8161-7.368-2.1331-3.199,1.6371-3.8121,2.485-3.828,5.2861-.0191,3.55,4.8949,5.7809,9.153,4.148Zm-6.3991-17.402c4.6721-2.512,10.2191-9.809,11.434-15.039a39.2127,39.2127,0,0,0,1-5.938c0-2.879-3.1449-8.258-5.5589-9.504-3.3481-1.7341-9.164-.7731-13.6411,2.25-4.46,3.0159-9.601,8.4879-9.601,10.231a15.5059,15.5059,0,0,1-1.199,4.1749,18.7118,18.7118,0,0,0-1.2,6.0361c0,2.726.4649,3.558,3.3679,6.0459,5.48,4.6881,9.1441,5.1061,15.398,1.7431Zm238.0351,52.664a14.45,14.45,0,0,0-1.5661-5.098,112.1453,112.1453,0,0,1-4.449-12.969,143.38,143.38,0,0,0-7.9689-20.3c-4.957-10.129-5.102-10.602-5.5351-18.254-.43-7.598-.379-7.918,1.5581-9.86,1.7739-1.7731,1.914-2.324,1.223-4.824-.832-3.012-2.809-4.996-5.02-5.035a4.1546,4.1546,0,0,1-2.5971-1.805c-.6879-.976-1.246-1.351-1.246-.832a3.1506,3.1506,0,0,0,1,1.879c2.1361,1.996-1.4889,24.5659-4.996,31.125-1.145,2.133-1.0239,2.41.9371,2.1949,1.172-.125,2.074.4651,2.75,1.8131,5.535,11.023,7.496,15.2929,8.34,18.148.711,2.403,1.6089,3.6059,3.187,4.258,3.3789,1.399,6.559,5.117,6.25,7.3049-.234,1.6371-.6361,1.851-3.07,1.6051-3.0191-.3-7.785-3.418-15.785-10.324-2.7421-2.367-5.34-4.086-5.77-3.82-.668.414-2.4251,5.4021-2.437,6.9261-.004.437,10.656,8.265,13.082,9.605.5.277,3.238,1.535,6.086,2.797a38.2994,38.2994,0,0,1,7.625,4.43,11.6588,11.6588,0,0,0,4.828,2.48c1.3049.1909,2.6449.4019,2.9729.469s.6011-.7931.6011-1.914Zm-48.488-17.7821c2.875-1.9919,6.449-6.4879,5.73-7.207-.16-.164-1.4021.278-2.7531.9771-6.1219,3.164-8.4069,2.8159-32.34-4.902-3.4379-1.11-6.418-1.852-6.621-1.649-.9459.946,6.7771,6.5159,14.23,10.262,12.27,6.1719,15.879,6.59,21.754,2.5189Zm8.332-11.0069c-.246-.246-.6951.199-.9921.988-.4379,1.141-.3439,1.23.445.449.5471-.543.7931-1.1911.5471-1.437Zm12.2769-3.5c-.7809-2.313-1.5619-3.543-1.91-3a4.7212,4.7212,0,0,0,.7109,5.461c2.2111,2.441,2.59,1.66,1.199-2.461Zm-20.89-.563c1.5581-1.492,3.297-2.715,3.859-2.715a4.0981,4.0981,0,0,0,2.25-1.2261c1.84-1.84,3.68.015,3.2971,3.3241-.168,1.4259-.047,2.43.27,2.234,1.371-.843,3.531-11.531,2.3351-11.531-.363,0-.8081-3.5121-.996-7.801-.414-9.578-1.5971-12.156-6.703-14.6291-3.113-1.5029-4.547-1.7179-9.0231-1.336a35.7982,35.7982,0,0,0-8.121,1.5941c-1.539.625-6.332,2.489-10.6529,4.137-4.316,1.6479-7.703,3.1439-7.5231,3.324s1.84-.207,3.6911-.8591c6.84-2.4139,19.7779-4.4379,23.6879-3.707a18.6171,18.6171,0,0,1,11.2261,7.32c2.0429,2.766,2.3209,4.406,1.469,8.656-.715,3.59-2.1331,3.086-4.039-1.429-1.7381-4.106-4.391-6.121-9.6441-7.309-4.4149-1-19.887,2.6329-28.8209,6.766a92.896,92.896,0,0,1-11.277,4.4919c-3.2151.8161-3.3671.9731-2,2.0081a5.7711,5.7711,0,0,0,2.605,1.148c.6179.0119,6.1959,1.676,12.3989,3.699,15.004,4.887,25.32,7.532,27.2771,6.993a15.3958,15.3958,0,0,0,4.4339-3.153Zm12.125-48.086a24.1683,24.1683,0,0,0-4.3439-3.3981c-.3241-.0159-3.832-2.946-7.801-6.5039-3.965-3.5631-7.211-6.344-7.211-6.184,0,.25-2.957,14.407-4.543,21.7459-.4681,2.1761-.379,2.2661,1.8249,1.8291,6.691-1.336,8.7571-1.4151,13.457-.528a25.1994,25.1994,0,0,1,7.7961,2.793l2.664,1.828.9579-4.1051.96-4.1059Zm7.035-6.828a32.2953,32.2953,0,0,0-4.34-7.043c-1.48-1.5121-2.1441-3.273-2.547-6.797-.371-3.238-1.1481-5.484-2.426-7.0231-2.1791-2.621-2.441-3.6369-3.019-11.738-1.797-25.11-2.11-37.1179-1.2771-48.7.484-6.7649.7571-12.425.6091-12.5739a27.0258,27.0258,0,0,0-4.723-.797l-4.445-.5231-.5781,6.64c-1.0589,12.118-7.992,33.422-16.418,50.4571l-6.1879,12.504,5.68.418c9.867.731,17.9769,4.223,16.82,7.243-.2611.6789,2.434,3.691,7.02,7.851,10.633,9.649,16.9531,15.059,17.6051,15.07.3129.0081-.488-2.2379-1.7731-4.9879Zm-156.6409-21.148a1.6159,1.6159,0,0,0-1.5351.0619c-.266.27.2071.457,1.0511.4221.93-.0391,1.1209-.2271.484-.484ZM243.4687,438.5c8.1211-1.5041,21.7771-7.109,29.2261-12.0041,15.66-10.281,25.957-24.265,35.4929-48.195,4.3-10.7929,11.339-33.7339,11.824-38.5309.23-2.2891.4371-2.4141,4.34-2.641,3.703-.215,5.121.282,14.6521,5.133,10.289,5.2379,18.449,11.379,18.449,13.8869,0,.7461-.59.5431-1.8511-.6409a6.4786,6.4786,0,0,0-2.7229-1.738,22.06,22.06,0,0,1-4.75-1.961,60.0373,60.0373,0,0,0-11.473-3.5511c-7.4721-1.57-7.625-1.57-8.906-.07a13.1256,13.1256,0,0,0-1.8591,5.351c-.543,3.75-.9849,5.426-5.981,22.727-1.351,4.676-2.4569,8.691-2.4569,8.926s.633.285,1.402.1089,5.567-.6639,10.6569-1.0819c11.0191-.902,25.6871-4.078,32.3241-7,10.6719-4.6951,21.6019-13.43,26.7659-21.391,4.261-6.57,11.078-22.437,12.48-29.062,1.543-7.2661,1.4809-22.9061-.121-31.7971a88.5743,88.5743,0,0,0-4.422-14.8009c-3.883-9.449-10.082-22.41-11.824-24.7221l-1.313-1.735-3.574,1.8951c-6.6011,3.5079-7.6521.48-1.7731-5.11a333.75,333.75,0,0,1,27.0541-22.726,175.6758,175.6758,0,0,0,18.3479-14.899c3.523-3.2461,8.1481-7.3241,10.2771-9.062a49.87,49.87,0,0,0,7.875-9.1991l4.008-6.0429-.3981-16.399c-.41-16.797-1.895-30.3471-5.7349-52.3041-1.7571-10.0669-2.05-13.9929-1.9721-26.746.0931-15.676.781-20.7069,3.32-24.348.8439-1.2109,1.3559-2.203,1.1449-2.203-1.8209,0-3.418,1.828-5.8679,6.703-4.7261,9.4141-21.1361,24.5271-36.031,33.1831-5.133,2.9849-22.32,10.145-31.0231,12.93-7.6959,2.457-18.2189,9.406-19.61,12.945-.57,1.4539-2.7379,6.4179-4.8159,11.04-10.231,22.7611-14.762,33.91-23.6211,58.101-1.6449,4.4921-3.871,6.4961-5.613,5.0471-.9769-.8091-1.168-1.848-.79-4.23l.508-3.161-12.23.496c-17.1019.6919-31.2109,3.93-54.6919,12.551-17.757,6.52-28.277,12.4379-43.7611,24.614-9.321,7.332-12.071,10.316-21.91,23.781-9.461,12.953-12.0281,17.2339-15.4651,25.84a147.0941,147.0941,0,0,0-9.6369,67.3631c2.156,23.6089,4.7729,37.664,9.23,49.598,1.071,2.859,3.2151,8.687,4.77,12.9489,3.906,10.7111,6.895,18.25,7.238,18.25,1.004,0,9.215-5.047,13.598-8.36a88.0374,88.0374,0,0,1,7.3939-5.1561c.985-.5119,3.2231-2.808,4.973-5.105s5.5671-6.7,8.4771-9.7779c5.0859-5.3821,5.273-5.5,4.8429-3-.929,5.414-11.265,27.657-14,30.1249-2.336,2.11-2.136,2.59,1.3131,3.172,1.652.2781,5.8789.9961,9.4019,1.5941,8.0161,1.3629,22.6141,1.586,28.813.441Zm10.386-86.726c-.441-.1491-4.1479-1.199-8.2379-2.34-7.7341-2.1481-16.597-7.281-21.035-12.18-7.578-8.367-12.0941-24.9879-10.3161-37.9719,1.7111-12.52,6.078-21.0081,16.367-31.8251,15.8631-16.683,29.824-23.289,49.215-23.289,7.73,0,8.09.0821,14.168,3.27,3.4331,1.801,8.121,4.515,10.418,6.031,13.785,9.098,22.1521,30.895,18.2731,47.598-2.469,10.617-9.32,24.98-15.1051,31.6679-7.02,8.105-14.3559,13.2611-21.672,15.23-14.547,3.91-16.207,4.199-23.6019,4.141a81.6207,81.6207,0,0,1-8.4731-.3319Zm22.3831-9.2621c12.0669-3.0779,16.102-5.25,23.684-12.7419,5.25-5.188,6.6719-7.25,10.5079-15.203,5.3631-11.1211,6.586-16.114,6.008-24.512-.9459-13.648-7.1529-26-15.918-31.676-10.985-7.109-12.844-7.812-20.719-7.812-12.293,0-18.449,2.0619-30.0549,10.0579-7.5121,5.18-11.273,8.45-16.2231,14.11-3.546,4.054-7.0459,8.644-7.7849,10.2031a56.7942,56.7942,0,0,1-3.2971,5.801c-1.55,2.351-2.0459,4.359-2.375,9.648a46.8147,46.8147,0,0,0,5.6371,26.117c2.93,5.184,4.1019,6.4219,9.2769,9.813a48.8921,48.8921,0,0,0,11.2,5.386c2.9021.833,6.5351,1.8679,8.0741,2.305,5.246,1.492,12.09,1.0279,21.984-1.4961Zm-32.0971-17.219c-2.989-1.476-5.536-7.1439-4.739-10.558,1.106-4.7229,2.317-6.5429,5.453-8.18,4.133-2.152,8.661-1.578,10.997,1.3909,3.41,4.3321,1.39,14.1131-3.5319,17.1131-2.98,1.8159-4.8591,1.871-8.1791.2339Zm6.5151-9.422c1.7619-3.2689,1.157-5.3039-1.578-5.3039-3.797,0-6.629,4.676-4.2621,7.043,1.825,1.824,4.321,1.0859,5.84-1.7391Zm116.172-81.3239c.211-.808,3.586-5.0081,7.5-9.324,11.871-13.1091,22.594-26.012,25.469-30.656,7.9259-12.7811,7.875-12.676,8.7659-19.4181.48-3.6209,1.2731-16.446,1.7651-28.5039.867-21.1521,1.582-26.6131,4.379-33.274.504-1.203-.309-.855-3.293,1.399a110.2353,110.2353,0,0,1-17.4881,11.246,142.6109,142.6109,0,0,0-27.4649,17.953c-6.391,5.234-8.301,10.832-17,49.8009a130.9524,130.9524,0,0,1-4.25,14.3981c-2.0351,5.4139-2.8831,6.8009-4.1561,6.8009-2.403,0-2.3909-2.648.039-11.0039,3.344-11.492,4.301-15.8941,4.332-19.89.039-4.786,3.504-21.227,5.89-27.9261a41.6733,41.6733,0,0,1,13.094-18.781c5.375-4.4539,7.7309-6.0819,24.2459-16.7859,4.6171-2.992,10.9691-7.1831,14.11-9.312a60.7837,60.7837,0,0,1,7.875-4.6951,27.062,27.062,0,0,0,5.492-3.5c2.922-2.3521,7.433-4.508,9.4411-4.508,1.52,0,.504,2.375-2.457,5.7419-2.664,3.023-3.449,4.828-5.203,11.91-1.875,7.5779-2.1091,10.3439-2.5351,29.949-.5239,24.1449-1.6249,33.5749-4.6409,39.785-3.875,7.9849-12.8041,19.805-24.082,31.868-4.402,4.707-9.625,10.332-11.6051,12.504-3.9609,4.3429-8.918,6.8859-8.2229,4.222Zm-14.586-3.219c-.6831-2.1561.9419-4.523,6.164-8.9681,3.3169-2.8239,11.7309-7.7929,13.1919-7.7929a23.58,23.58,0,0,1-2.172,3.926c-2.9769,4.839-13.0509,14.476-15.1329,14.476a2.3811,2.3811,0,0,1-2.051-1.641Zm-8.738-3.261c-2.57-2.024-2.6091-4.4421-.149-9.3241,1.043-2.0749,3.418-7.915,5.27-12.973,4.328-11.813,7.648-19.6089,9.293-21.8359,1.238-1.676,1.285-1.457.859,4.16-.25,3.258-.16,5.5979.1919,5.199s2.9291-3.785,5.7261-7.5231c5.4459-7.274,14.141-16.488,14.875-15.754.676.6761-3.578,8.566-11.2181,20.797-3.793,6.0781-6.8989,11.1911-6.8989,11.3671a49.3907,49.3907,0,0,0,6.0979-4.0551c3.3551-2.4059,6.957-4.5889,8.012-4.855a4.7555,4.7555,0,0,0,2.6521-1.7889c.527-.9341.988-1.0671,1.605-.4571,1.309,1.2931-2.672,6.3711-14.691,18.7461-5.774,5.937-12.055,12.664-13.961,14.941-4.23,5.0509-5.047,5.41-7.664,3.356Zm-142.965-5.1681,4.2619-2.8709-1.5979-1.7311c-2.625-2.8439-11.7111-23.238-15.8321-35.5349-3.8709-11.559-4.2729-18.473-1.957-33.726a145.9145,145.9145,0,0,1,2.8281-14.797,80.54,80.54,0,0,0,1.9919-8.071,99.5762,99.5762,0,0,1,2.8681-10.6051,43.6911,43.6911,0,0,0,1.957-7.203c.004-2.11,4.5779-13.9179,5.906-15.2459,2.242-2.243,3.4219-.5821,3.9329,5.539.614,7.324,4.141,14.945,8.3911,18.125A44.3256,44.3256,0,0,1,225,129.9961a37.24,37.24,0,0,0,3.7339,5.8169c5.45,5.9451,13.3251,34.789,15.036,55.09a60.04,60.04,0,0,0,.9761,8.0229c.176.176,2.84-.3509,5.914-1.172,3.078-.82,7.082-1.879,8.9029-2.347,2.3161-.594,3.4721-1.391,3.8551-2.6449.793-2.6051,1.9609-16.7421,2.543-30.828.4689-11.27.394-12.3161-.9571-13.301-.805-.59-1.8439-2.625-2.305-4.5231-.7189-2.93-1.23-3.5509-3.398-4.11-1.641-.4181-3.6409-2.0151-5.5669-4.445-1.656-2.082-5.546-6.4961-8.644-9.805-24.133-25.773-32.152-36.191-36.4261-47.3041a66.3936,66.3936,0,0,0-3.2109-7.477,23.1672,23.1672,0,0,1-1.8051-4.8009c-1.7849-6.1521-3.531-5.757-4.199.953-.851,8.4929-2.273,14.125-6.73,26.649-2.27,6.3789-5.3869,15.558-6.9219,20.398-3.4651,10.918-10.3561,31.321-12.5631,37.2a31.4864,31.4864,0,0,0-1.7139,11.199c-.067,6.7891-.0551,6.8241,5.2689,18,7.9651,16.7191,18.266,41.7381,18.266,44.3671,0,1.3589.9881.992,5.4841-2.0351Zm31.1519-17.9379,8.2231-3.578-.5161-5.605c-.793-8.6761-5.582-32.063-8.3079-40.571a58.52,58.52,0,0,0-7.6491-15.546c-2.8549-4.34-6-9.153-6.9839-10.692a61.4415,61.4415,0,0,0-6.644-7.6011c-2.6681-2.6409-5.399-6.0589-6.067-7.598-.672-1.5429-1.5981-3.703-2.0621-4.8009-.813-1.9371-.8559-1.8981-1.368,1.199-.289,1.762-1.039,5.18-1.664,7.602-3.7379,14.476-7.57,37.867-7.586,46.316-.011,7.3829,1.477,12.844,8.4221,30.883,6.223,16.168,7.532,19.9339,7.551,21.711.0159,1.547.82,1.231,8.2229-3.2151a172.6951,172.6951,0,0,1,16.429-8.5039Z"/></svg>